<svg xmlns="http://www.w3.org/2000/svg" viewBox="0 0 512 512">
  <rect width="512" height="512" rx="115" ry="115" fill="#FFFFFF" />
  <g transform="translate(66 80) scale(0.567)">
    <path d="M164.695 48.5819C236.376 15.1395 320.377 10.7467 384.736 17.9725C425.158 21.9209 466.931 31.4954 505.193 49.3466C546.76 68.7393 584.197 97.9074 611.237 140.249C638.278 182.591 654.889 238.054 654.889 309.98C654.889 381.907 638.278 437.37 611.237 479.712C584.197 522.053 546.76 551.22 505.193 570.613C433.512 604.056 349.511 608.448 285.151 601.222C244.73 597.273 202.957 587.7 164.695 569.849C123.129 550.456 85.6918 521.289 58.6514 478.947C31.6106 436.605 15 381.142 15 309.216C15.0001 237.289 31.6106 181.826 58.6514 139.484C85.6918 97.1429 123.129 67.9746 164.695 48.5819Z" fill="#EDEDEB"/>
    <path d="M164.695 48.5819L158.353 34.9885L158.353 34.9886L164.695 48.5819ZM384.736 17.9725L383.063 32.8789C383.134 32.8869 383.206 32.8945 383.278 32.9015L384.736 17.9725ZM505.193 49.3466L511.535 35.7532L511.535 35.7532L505.193 49.3466ZM611.237 140.249L623.879 132.175V132.175L611.237 140.249ZM654.889 309.98H669.889V309.98H654.889ZM611.237 479.712L623.879 487.785L623.879 487.785L611.237 479.712ZM505.193 570.613L511.535 584.207H511.535L505.193 570.613ZM285.151 601.222L286.825 586.315C286.753 586.307 286.681 586.3 286.61 586.293L285.151 601.222ZM164.695 569.849L158.353 583.442H158.353L164.695 569.849ZM58.6514 478.947L46.0094 487.021L46.0094 487.021L58.6514 478.947ZM15 309.216H0V309.216H15ZM58.6514 139.484L46.0094 131.411L46.0094 131.411L58.6514 139.484ZM164.695 48.5819L171.037 62.1753C239.396 30.283 320.376 25.8409 383.063 32.8789L384.736 17.9725L386.41 3.0662C320.378 -4.34742 233.357 -0.00398636 158.353 34.9885L164.695 48.5819ZM384.736 17.9725L383.278 32.9015C422.429 36.7257 462.471 45.9667 498.851 62.9399L505.193 49.3466L511.535 35.7532C471.391 17.024 427.888 7.11607 386.195 3.04359L384.736 17.9725ZM505.193 49.3466L498.851 62.9399C538.281 81.3359 573.333 108.764 598.595 148.322L611.237 140.249L623.879 132.175C595.061 87.0503 555.238 56.1428 511.535 35.7532L505.193 49.3466ZM611.237 140.249L598.595 148.322C623.852 187.87 639.889 240.424 639.889 309.98H654.889H669.889C669.889 235.684 652.705 177.312 623.879 132.175L611.237 140.249ZM654.889 309.98H639.889C639.889 379.537 623.852 432.09 598.595 471.638L611.237 479.712L623.879 487.785C652.705 442.649 669.889 384.277 669.889 309.98H654.889ZM611.237 479.712L598.595 471.638C573.333 511.196 538.281 538.624 498.851 557.02L505.193 570.613L511.535 584.207C555.238 563.817 595.061 532.91 623.879 487.785L611.237 479.712ZM505.193 570.613L498.851 557.02C430.493 588.912 349.512 593.354 286.825 586.315L285.151 601.222L283.478 616.128C349.51 623.542 436.531 619.2 511.535 584.207L505.193 570.613ZM285.151 601.222L286.61 586.293C247.459 582.468 207.417 573.228 171.037 556.255L164.695 569.849L158.353 583.442C198.498 602.171 242.001 612.078 283.693 616.151L285.151 601.222ZM164.695 569.849L171.037 556.255C131.607 537.859 96.556 510.431 71.2933 470.874L58.6514 478.947L46.0094 487.021C74.8276 532.146 114.651 563.052 158.353 583.442L164.695 569.849ZM58.6514 478.947L71.2933 470.874C46.0371 431.326 30 378.772 30 309.216H15H0C2.38419e-05 383.512 17.1842 441.884 46.0094 487.021L58.6514 478.947ZM15 309.216H30C30.0001 239.659 46.037 187.106 71.2933 147.558L58.6514 139.484L46.0094 131.411C17.1841 176.547 7.34329e-05 234.92 0 309.216H15ZM58.6514 139.484L71.2933 147.558C96.5561 108 131.608 80.5712 171.037 62.1753L164.695 48.5819L158.353 34.9886C114.65 55.3781 74.8276 86.2858 46.0094 131.411L58.6514 139.484Z" fill="#111213"/>
    <path d="M650.393 243.817L22.4453 243.817C36.4263 187.511 69.7809 15.0014 336.42 15.0012C602.392 15.0011 638.313 186.236 650.146 242.641L650.393 243.817Z" fill="#111213"/>
    <path d="M548.279 75.2684C522.258 56.0597 497.769 47.2144 460.244 35.6849C422.447 25.5579 416.452 22.8283 371.264 19.4912C359.226 18.8526 348.125 18.547 336.42 18.4951C303.912 18.253 274.846 20.9456 260.132 23.7479C240.621 27.6987 237.726 25.6946 210.235 33.696C182.828 42.4668 166.796 49.1787 144.678 61.1112C120.667 70.4626 65.2092 126.362 55.5596 153.745C42.8125 178.771 32.0094 209.051 27.0817 227.852C25.5326 233.555 24.282 238.201 23.2536 241.775C22.8315 243.236 22.5475 243.838 22.4227 243.811C22.4226 243.811 22.4225 243.811 22.4225 243.811C22.2692 243.767 22.3623 242.748 22.8142 240.814C25.0437 231.34 27.9873 217.411 32.699 200.881C42.399 170.664 43.5718 166.974 65.8063 130.177C90.1805 94.8814 109.041 74.6358 153.843 50.6607C199.84 30.0125 210.813 21.9385 282.029 14.338C305.524 12.6196 321.87 12.3856 336.42 12.1195C365.496 12.1499 384.848 10.2818 432.29 18.4996C504.473 28.3334 582.435 84.2451 604.949 121.842C626.651 150.591 645.657 194.402 654.484 242.957L655.514 248.033L650.393 247.998C640.434 247.967 630.329 247.92 620.135 247.85C559.625 247.437 484.929 248.48 418.136 247.743C351.344 247.006 256.915 246.076 213.289 245.452C169.666 244.829 159.033 244.688 117.043 245.069C92.907 245.288 59.657 245.082 31.5715 244.277C17.4372 243.871 20.64 243.307 34.8668 243.037C55.6709 242.642 72.7488 242.906 83.4683 242.201C104.888 240.791 113.992 240.25 141.033 241.071C168.072 241.891 180.813 240.027 196.576 240.241C212.339 240.456 212.079 241.555 292.227 240.708C372.377 239.861 416.314 239.645 446.666 239.441C477.018 239.238 540.395 240.192 589.861 239.848C605.92 239.736 627.365 239.694 650.393 239.668L646.333 244.669C638.326 197.609 615.285 147.858 598.206 127.023C573.192 96.2111 573.225 95.8903 548.279 75.2684Z" fill="#111213"/>
    <path d="M404.146 191.162C420.26 191.55 428.876 190.979 438.022 191.754L437.971 191.749C439.145 191.841 440.33 191.963 441.535 192.124C451.49 194.715 452.788 190.644 499.117 208.238C500.534 208.874 501.988 209.552 503.476 210.277C529.222 222.808 544.766 239.787 554.232 254.284C562.904 267.668 567.131 279.171 570.063 288.629C573.757 300.297 577.038 320.205 576.713 341.306C576.615 356.112 574.999 371.568 571.956 385.163C569.365 397.048 564.043 413.3 554.357 428.409C540.632 450.847 516.873 467.781 499.694 475.612C496.012 477.377 492.645 478.827 489.741 480.015C463.702 489.586 462.967 487.693 441.031 490.174C422.697 491.515 407.491 493.667 387.224 491.979L387.297 491.987C383.243 491.678 378.992 491.183 374.514 490.412C351.42 485.879 345.621 482.857 326.144 474.327C323.1 472.888 319.745 471.22 316.016 469.172C295.986 458.469 280.245 441.129 271.898 427.491C268.61 422.306 266.176 417.73 264.343 414.34C258.89 403.427 258.925 400.511 255.734 387.3C263.604 380.919 265.516 380.416 273.086 374.69C280.959 368.735 284.812 363.628 291.396 358.87C297.979 354.112 298.454 354.566 306.075 348.14C313.698 341.714 333.242 326.426 342.67 318.715C346.867 315.283 351.692 311.525 356.266 307.996L359.476 305.392L354.901 304.55C346.895 302.922 339.48 301.378 334.848 300.539C326.498 299.026 314.413 296.801 292.354 292.952C270.293 289.102 270.403 288.601 266.078 287.665C263.88 287.19 261.877 287.007 259.467 286.704C263.169 274.497 267.91 262.851 273.38 255.305C274.672 253.182 275.876 251.316 276.918 249.731C287.26 233.41 305.898 220.875 317.368 215.09C320.937 213.195 323.845 211.903 326.098 210.984C326.993 210.62 327.475 210.526 327.577 210.611C327.579 210.61 327.581 210.61 327.583 210.609C327.7 210.554 327.818 210.501 327.935 210.447C326.406 210.758 329.052 209.23 334.88 206.593C347.684 201.029 358.958 198.687 365.843 196.558C379.696 192.53 385.917 191.063 404.146 191.162Z" fill="#111213"/>
    <path d="M26.8884 379.002L654.836 379.002C640.855 435.308 607.5 607.817 340.861 607.817C74.8897 607.817 38.9678 436.583 27.1352 380.178L26.8884 379.002Z" fill="#111213"/>
    <path d="M129.003 547.55C155.023 566.759 179.512 575.604 217.037 587.134C254.834 597.261 260.83 599.99 306.017 603.327C318.056 603.966 329.156 604.272 340.861 604.323C373.37 604.566 402.435 601.873 417.149 599.071C436.66 595.12 439.555 597.124 467.046 589.123C494.453 580.352 510.485 573.64 532.603 561.707C556.614 552.356 612.072 496.457 621.722 469.074C634.469 444.047 645.272 413.768 650.2 394.966C651.749 389.264 652.999 384.618 654.028 381.044C654.45 379.582 654.734 378.98 654.859 379.007C654.859 379.007 654.859 379.007 654.859 379.007C655.012 379.051 654.919 380.07 654.467 382.005C652.238 391.479 649.294 405.408 644.582 421.937C634.882 452.155 633.709 455.845 611.475 492.642C587.101 527.937 568.24 548.183 523.439 572.158C477.441 592.806 466.468 600.88 395.252 608.481C371.758 610.199 355.412 610.433 340.861 610.699C311.785 610.669 292.433 612.537 244.991 604.319C172.808 594.485 94.846 538.573 72.332 500.977C50.6306 472.228 31.6239 428.417 22.7968 379.861L21.7674 374.786L26.8884 374.821C36.8476 374.851 46.9518 374.899 57.1464 374.968C117.656 375.381 192.353 374.339 259.145 375.075C325.937 375.812 420.366 376.743 463.992 377.366C507.615 377.99 518.248 378.13 560.238 377.749C584.374 377.53 617.624 377.737 645.71 378.542C659.844 378.947 656.641 379.512 642.415 379.782C621.61 380.177 604.532 379.913 593.813 380.618C572.393 382.028 563.29 382.568 536.249 381.748C509.209 380.928 496.468 382.792 480.706 382.577C464.943 382.363 465.202 381.263 385.054 382.11C304.905 382.958 260.967 383.174 230.615 383.377C200.263 383.581 136.886 382.626 87.4204 382.971C71.3612 383.083 49.9165 383.125 26.8884 383.15L30.9483 378.149C38.9548 425.209 61.9962 474.961 79.0751 495.796C104.089 526.607 104.057 526.928 129.003 547.55Z" fill="#111213"/>
  </g>
</svg>
