<svg width="962" height="421" viewBox="0 0 962 421" fill="none" xmlns="http://www.w3.org/2000/svg">
<path d="M461.841 170.892C461.841 90.9742 461.841 51.0155 478.069 32.8128C491.066 18.2339 510.008 10.3877 529.507 11.5063C553.853 12.9031 582.108 41.1582 638.618 97.6683C664.733 123.783 677.791 136.841 692.928 141.523C705.249 145.335 718.434 145.335 730.755 141.523C745.892 136.841 758.95 123.783 785.065 97.6683C841.575 41.1582 869.83 12.9031 894.176 11.5063C913.675 10.3877 932.617 18.2339 945.614 32.8128C961.841 51.0155 961.841 90.9742 961.841 170.892V292.892C961.841 353.231 961.841 383.401 943.096 402.146C924.351 420.892 894.181 420.892 833.841 420.892H589.841C529.502 420.892 499.332 420.892 480.586 402.146C461.841 383.401 461.841 353.231 461.841 292.892V170.892Z" fill="currentColor"/>
<path fill-rule="evenodd" clip-rule="evenodd" d="M207.841 0C247.395 0 272.373 49.9552 322.328 149.865L365.22 235.648C406.732 318.673 427.488 360.185 408.729 390.538C389.969 420.891 343.557 420.892 250.733 420.892H164.949C72.1252 420.892 25.7134 420.891 6.95409 390.538C-11.8051 360.185 8.95068 318.673 50.4629 235.648L93.3545 149.865C143.309 49.9556 168.287 0.00041117 207.841 0ZM207.842 210.892C169.734 210.892 138.842 241.784 138.842 279.892C138.842 317.999 169.734 348.892 207.842 348.892C245.949 348.892 276.842 317.999 276.842 279.892C276.842 241.784 245.949 210.892 207.842 210.892Z" fill="currentColor"/>
</svg>
