<svg width="2920" height="835" viewBox="0 0 2920 835" fill="none" xmlns="http://www.w3.org/2000/svg">
<path d="M2279.81 113.581C2351.47 80.1499 2435.43 75.7493 2499.78 82.9648C2540.23 86.9092 2582.02 96.4839 2620.31 114.345C2661.87 133.737 2699.31 162.906 2726.35 205.247C2753.39 247.589 2770 303.052 2770 374.979C2770 446.905 2753.39 502.368 2726.35 544.71C2699.31 587.051 2661.87 616.219 2620.31 635.611C2548.65 669.043 2464.68 673.442 2400.33 666.227C2359.89 662.282 2318.09 652.708 2279.81 634.848C2238.24 615.455 2200.81 586.288 2173.76 543.946C2146.72 501.604 2130.11 446.141 2130.11 374.215C2130.11 302.288 2146.72 246.826 2173.76 204.483C2200.81 162.142 2238.24 132.974 2279.81 113.581Z" fill="#EDEDEB"/>
<path d="M2279.81 113.581L2273.47 99.9877L2273.47 99.9877L2279.81 113.581ZM2499.78 82.9648L2498.11 97.8714C2498.18 97.8795 2498.26 97.887 2498.33 97.894L2499.78 82.9648ZM2620.31 114.345L2626.65 100.751L2626.65 100.751L2620.31 114.345ZM2726.35 205.247L2738.99 197.174L2738.99 197.174L2726.35 205.247ZM2770 374.979H2785V374.978L2770 374.979ZM2726.35 544.71L2738.99 552.783L2738.99 552.783L2726.35 544.71ZM2620.31 635.611L2626.65 649.205H2626.65L2620.31 635.611ZM2400.33 666.227L2402 651.32C2401.93 651.312 2401.86 651.304 2401.79 651.297L2400.33 666.227ZM2279.81 634.848L2273.47 648.441V648.441L2279.81 634.848ZM2173.76 543.946L2161.12 552.02H2161.12L2173.76 543.946ZM2130.11 374.215H2115.11V374.215H2130.11ZM2173.76 204.483L2161.12 196.41L2161.12 196.41L2173.76 204.483ZM2279.81 113.581L2286.15 127.174C2354.49 95.2929 2435.43 90.8434 2498.11 97.8714L2499.78 82.9648L2501.46 68.0582C2435.43 60.6552 2348.44 65.0068 2273.47 99.9877L2279.81 113.581ZM2499.78 82.9648L2498.33 97.894C2537.5 101.714 2577.56 110.956 2613.96 127.938L2620.31 114.345L2626.65 100.751C2586.48 82.0121 2542.95 72.104 2501.24 68.0357L2499.78 82.9648ZM2620.31 114.345L2613.96 127.938C2653.39 146.334 2688.45 173.763 2713.71 213.321L2726.35 205.247L2738.99 197.174C2710.17 152.049 2670.35 121.141 2626.65 100.751L2620.31 114.345ZM2726.35 205.247L2713.71 213.321C2738.96 252.868 2755 305.422 2755 374.979H2770L2785 374.978C2785 300.683 2767.82 242.31 2738.99 197.174L2726.35 205.247ZM2770 374.979L2755 374.978C2755 444.535 2738.96 497.089 2713.71 536.636L2726.35 544.71L2738.99 552.783C2767.82 507.647 2785 449.275 2785 374.979H2770ZM2726.35 544.71L2713.71 536.636C2688.45 576.194 2653.39 603.622 2613.96 622.018L2620.31 635.611L2626.65 649.205C2670.35 628.815 2710.17 597.909 2738.99 552.783L2726.35 544.71ZM2620.31 635.611L2613.96 622.018C2545.63 653.9 2464.68 658.348 2402 651.32L2400.33 666.227L2398.66 681.133C2464.68 688.536 2551.67 684.186 2626.65 649.205L2620.31 635.611ZM2400.33 666.227L2401.79 651.297C2362.62 647.477 2322.55 638.236 2286.15 621.254L2279.81 634.848L2273.47 648.441C2313.63 667.18 2357.16 677.087 2398.87 681.156L2400.33 666.227ZM2279.81 634.848L2286.15 621.254C2246.72 602.858 2211.67 575.431 2186.41 535.873L2173.76 543.946L2161.12 552.02C2189.94 597.145 2229.76 628.052 2273.47 648.441L2279.81 634.848ZM2173.76 543.946L2186.41 535.873C2161.15 496.325 2145.11 443.772 2145.11 374.215L2130.11 374.215H2115.11C2115.11 448.511 2132.3 506.883 2161.12 552.02L2173.76 543.946ZM2130.11 374.215H2145.11C2145.11 304.658 2161.15 252.105 2186.41 212.557L2173.76 204.483L2161.12 196.41C2132.3 241.546 2115.11 299.919 2115.11 374.215H2130.11ZM2173.76 204.483L2186.41 212.557C2211.67 172.999 2246.72 145.57 2286.15 127.174L2279.81 113.581L2273.47 99.9877C2229.76 120.377 2189.94 151.285 2161.12 196.41L2173.76 204.483Z" fill="#111213"/>
<path d="M2765.51 308.815L2137.56 308.816C2151.54 252.51 2184.89 80.0002 2451.53 80C2717.5 79.9998 2753.43 251.235 2765.26 307.639L2765.51 308.815Z" fill="#111213"/>
<path d="M2663.39 140.267C2637.37 121.058 2612.88 112.213 2575.36 100.684C2537.56 90.5567 2531.57 87.827 2486.38 84.49C2474.34 83.8514 2463.24 83.5458 2451.53 83.4939C2419.02 83.2518 2389.96 85.9444 2375.25 88.7467C2355.73 92.6975 2352.84 90.6934 2325.35 98.6948C2297.94 107.466 2281.91 114.177 2259.79 126.11C2235.78 135.461 2180.32 191.361 2170.67 218.744C2157.93 243.77 2147.12 274.049 2142.19 292.851C2140.65 298.554 2139.4 303.2 2138.37 306.773C2137.94 308.235 2137.66 308.837 2137.54 308.81C2137.54 308.81 2137.54 308.81 2137.54 308.81C2137.38 308.766 2137.48 307.747 2137.93 305.812C2140.16 296.339 2143.1 282.41 2147.81 265.88C2157.51 235.663 2158.69 231.973 2180.92 195.176C2205.29 159.88 2224.15 139.635 2268.96 115.659C2314.95 95.0113 2325.93 86.9373 2397.14 79.3368C2420.64 77.6184 2436.98 77.3844 2451.53 77.1183C2480.61 77.1487 2499.96 75.2806 2547.4 83.4984C2619.59 93.3322 2697.55 149.244 2720.06 186.84C2741.76 215.589 2760.77 259.4 2769.6 307.956L2770.63 313.032L2765.51 312.996C2755.55 312.966 2745.44 312.919 2735.25 312.849C2674.74 312.436 2600.04 313.479 2533.25 312.742C2466.46 312.005 2372.03 311.075 2328.4 310.451C2284.78 309.828 2274.15 309.687 2232.16 310.068C2208.02 310.287 2174.77 310.081 2146.68 309.275C2132.55 308.87 2135.75 308.306 2149.98 308.036C2170.78 307.641 2187.86 307.905 2198.58 307.199C2220 305.79 2229.1 305.249 2256.15 306.069C2283.19 306.89 2295.93 305.025 2311.69 305.24C2327.45 305.455 2327.19 306.554 2407.34 305.707C2487.49 304.86 2531.43 304.643 2561.78 304.44C2592.13 304.237 2655.51 305.191 2704.97 304.846C2721.03 304.735 2742.48 304.692 2765.51 304.667L2761.45 309.668C2753.44 262.608 2730.4 212.856 2713.32 192.021C2688.31 161.21 2688.34 160.889 2663.39 140.267Z" fill="#111213"/>
<path d="M2519.26 256.16C2535.37 256.549 2543.99 255.978 2553.14 256.753L2553.08 256.747C2554.26 256.839 2555.44 256.961 2556.65 257.123C2566.6 259.713 2567.9 255.642 2614.23 273.236C2615.65 273.873 2617.1 274.551 2618.59 275.275C2644.34 287.807 2659.88 304.786 2669.35 319.282C2678.02 332.666 2682.24 344.169 2685.18 353.628C2688.87 365.296 2692.15 385.204 2691.83 406.305C2691.73 421.111 2690.11 436.567 2687.07 450.161C2684.48 462.047 2679.16 478.298 2669.47 493.407C2655.75 515.845 2631.99 532.78 2614.81 540.61C2611.13 542.376 2607.76 543.825 2604.85 545.014C2578.82 554.584 2578.08 552.691 2556.14 555.173C2537.81 556.514 2522.6 558.666 2502.34 556.978L2502.41 556.985C2498.36 556.677 2494.11 556.182 2489.63 555.41C2466.53 550.878 2460.73 547.856 2441.26 539.325C2438.21 537.886 2434.86 536.219 2431.13 534.171C2411.1 523.468 2395.36 506.127 2387.01 492.489C2383.72 487.304 2381.29 482.729 2379.46 479.339C2374 468.426 2374.04 465.509 2370.85 452.299C2378.72 445.917 2380.63 445.414 2388.2 439.688C2396.07 433.734 2399.92 428.626 2406.51 423.868C2413.09 419.11 2413.57 419.564 2421.19 413.139C2428.81 406.712 2448.36 391.424 2457.78 383.714C2461.98 380.281 2466.81 376.524 2471.38 372.994L2474.59 370.391L2470.01 369.549C2462.01 367.92 2454.59 366.376 2449.96 365.537C2441.61 364.025 2429.53 361.799 2407.47 357.95C2385.41 354.101 2385.52 353.599 2381.19 352.664C2378.99 352.189 2376.99 352.005 2374.58 351.702C2378.28 339.496 2383.02 327.849 2388.49 320.304C2389.79 318.18 2390.99 316.315 2392.03 314.729C2402.37 298.408 2421.01 285.874 2432.48 280.089C2436.05 278.193 2438.96 276.902 2441.21 275.982C2442.1 275.62 2442.59 275.526 2442.69 275.608C2442.69 275.607 2442.69 275.607 2442.7 275.606C2442.81 275.552 2442.93 275.5 2443.04 275.446C2441.52 275.754 2444.17 274.227 2449.99 271.592C2462.8 266.027 2474.07 263.685 2480.96 261.557C2494.81 257.528 2501.03 256.062 2519.26 256.16Z" fill="#111213"/>
<path d="M2142 444L2769.95 444C2755.97 500.306 2722.61 672.816 2455.97 672.816C2190 672.816 2154.08 501.581 2142.25 445.176L2142 444Z" fill="#111213"/>
<path d="M2244.12 612.549C2270.14 631.757 2294.63 640.603 2332.15 652.132C2369.95 662.259 2375.94 664.989 2421.13 668.326C2433.17 668.965 2444.27 669.27 2455.97 669.322C2488.48 669.564 2517.55 666.871 2532.26 664.069C2551.77 660.118 2554.67 662.122 2582.16 654.121C2609.57 645.35 2625.6 638.638 2647.72 626.706C2671.73 617.355 2727.19 561.455 2736.83 534.072C2749.58 509.046 2760.39 478.766 2765.31 459.965C2766.86 454.262 2768.11 449.616 2769.14 446.043C2769.56 444.581 2769.85 443.979 2769.97 444.006C2769.97 444.006 2769.97 444.006 2769.97 444.006C2770.13 444.05 2770.03 445.069 2769.58 447.003C2767.35 456.477 2764.41 470.406 2759.7 486.936C2750 517.153 2748.82 520.843 2726.59 557.64C2702.21 592.936 2683.35 613.181 2638.55 637.156C2592.55 657.805 2581.58 665.879 2510.37 673.479C2486.87 675.197 2470.52 675.431 2455.97 675.698C2426.9 675.667 2407.55 677.535 2360.1 669.318C2287.92 659.484 2209.96 603.572 2187.45 565.975C2165.74 537.226 2146.74 493.416 2137.91 444.86L2136.88 439.784L2142 439.819C2151.96 439.85 2162.07 439.897 2172.26 439.967C2232.77 440.38 2307.47 439.337 2374.26 440.074C2441.05 440.811 2535.48 441.741 2579.11 442.365C2622.73 442.988 2633.36 443.129 2675.35 442.748C2699.49 442.529 2732.74 442.735 2760.82 443.541C2774.96 443.946 2771.75 444.51 2757.53 444.78C2736.72 445.175 2719.65 444.911 2708.93 445.617C2687.51 447.026 2678.4 447.567 2651.36 446.747C2624.32 445.926 2611.58 447.791 2595.82 447.576C2580.06 447.361 2580.32 446.262 2500.17 447.109C2420.02 447.956 2376.08 448.172 2345.73 448.376C2315.38 448.579 2252 447.625 2202.53 447.969C2186.47 448.081 2165.03 448.123 2142 448.149L2146.06 443.148C2154.07 490.208 2177.11 539.959 2194.19 560.795C2219.2 591.606 2219.17 591.927 2244.12 612.549Z" fill="#111213"/>
<path d="M1479.87 118.581C1551.52 85.1499 1635.49 80.7493 1699.84 87.9648C1740.29 91.9092 1782.08 101.484 1820.37 119.345C1861.93 138.737 1899.37 167.906 1926.41 210.247C1953.45 252.589 1970.06 308.052 1970.06 379.979C1970.06 451.905 1953.45 507.368 1926.41 549.71C1899.37 592.051 1861.93 621.219 1820.37 640.611C1748.71 674.043 1664.74 678.442 1600.39 671.227C1559.95 667.282 1518.15 657.708 1479.87 639.848C1438.3 620.455 1400.86 591.288 1373.82 548.946C1346.78 506.604 1330.17 451.141 1330.17 379.215C1330.17 307.288 1346.78 251.826 1373.82 209.483C1400.86 167.142 1438.3 137.974 1479.87 118.581Z" fill="#EDEDEB"/>
<path d="M1479.87 118.581L1473.53 104.988L1473.53 104.988L1479.87 118.581ZM1699.84 87.9648L1698.17 102.871C1698.24 102.879 1698.31 102.887 1698.39 102.894L1699.84 87.9648ZM1820.37 119.345L1826.71 105.751L1826.71 105.751L1820.37 119.345ZM1926.41 210.247L1939.05 202.174L1939.05 202.174L1926.41 210.247ZM1970.06 379.979H1985.06V379.978L1970.06 379.979ZM1926.41 549.71L1939.05 557.783L1939.05 557.783L1926.41 549.71ZM1820.37 640.611L1826.71 654.205H1826.71L1820.37 640.611ZM1600.39 671.227L1602.06 656.32C1601.99 656.312 1601.92 656.304 1601.84 656.297L1600.39 671.227ZM1479.87 639.848L1473.53 653.441V653.441L1479.87 639.848ZM1373.82 548.946L1361.18 557.02H1361.18L1373.82 548.946ZM1330.17 379.215H1315.17V379.215H1330.17ZM1373.82 209.483L1361.18 201.41L1361.18 201.41L1373.82 209.483ZM1479.87 118.581L1486.21 132.174C1554.54 100.293 1635.49 95.8434 1698.17 102.871L1699.84 87.9648L1701.51 73.0582C1635.49 65.6552 1548.5 70.0068 1473.53 104.988L1479.87 118.581ZM1699.84 87.9648L1698.39 102.894C1737.56 106.714 1777.62 115.956 1814.02 132.938L1820.37 119.345L1826.71 105.751C1786.54 87.012 1743.01 77.104 1701.3 73.0357L1699.84 87.9648ZM1820.37 119.345L1814.02 132.938C1853.45 151.334 1888.5 178.763 1913.77 218.321L1926.41 210.247L1939.05 202.174C1910.23 157.049 1870.41 126.141 1826.71 105.751L1820.37 119.345ZM1926.41 210.247L1913.77 218.321C1939.02 257.868 1955.06 310.422 1955.06 379.979H1970.06L1985.06 379.978C1985.06 305.682 1967.88 247.31 1939.05 202.174L1926.41 210.247ZM1970.06 379.979L1955.06 379.978C1955.06 449.535 1939.02 502.089 1913.77 541.636L1926.41 549.71L1939.05 557.783C1967.88 512.647 1985.06 454.275 1985.06 379.979H1970.06ZM1926.41 549.71L1913.77 541.636C1888.5 581.194 1853.45 608.622 1814.02 627.018L1820.37 640.611L1826.71 654.205C1870.41 633.815 1910.23 602.909 1939.05 557.783L1926.41 549.71ZM1820.37 640.611L1814.02 627.018C1745.69 658.9 1664.74 663.348 1602.06 656.32L1600.39 671.227L1598.72 686.133C1664.74 693.536 1751.73 689.186 1826.71 654.205L1820.37 640.611ZM1600.39 671.227L1601.84 656.297C1562.67 652.477 1522.61 643.236 1486.21 626.254L1479.87 639.848L1473.53 653.441C1513.69 672.18 1557.22 682.087 1598.93 686.156L1600.39 671.227ZM1479.87 639.848L1486.21 626.254C1446.78 607.858 1411.73 580.43 1386.47 540.873L1373.82 548.946L1361.18 557.02C1390 602.145 1429.82 633.052 1473.53 653.441L1479.87 639.848ZM1373.82 548.946L1386.47 540.873C1361.21 501.325 1345.17 448.771 1345.17 379.215L1330.17 379.215H1315.17C1315.17 453.511 1332.36 511.883 1361.18 557.02L1373.82 548.946ZM1330.17 379.215H1345.17C1345.17 309.658 1361.21 257.105 1386.47 217.557L1373.82 209.483L1361.18 201.41C1332.36 246.546 1315.17 304.919 1315.17 379.215H1330.17ZM1373.82 209.483L1386.47 217.557C1411.73 177.999 1446.78 150.57 1486.21 132.174L1479.87 118.581L1473.53 104.988C1429.82 125.377 1390 156.285 1361.18 201.41L1373.82 209.483Z" fill="#111213"/>
<path d="M1965.56 313.815L1337.62 313.816C1351.6 257.51 1384.95 85.0002 1651.59 85C1917.56 84.9998 1953.49 256.235 1965.32 312.639L1965.56 313.815Z" fill="#111213"/>
<path d="M1863.45 145.267C1837.43 126.058 1812.94 117.213 1775.42 105.684C1737.62 95.5567 1731.62 92.827 1686.44 89.49C1674.4 88.8514 1663.3 88.5458 1651.59 88.4939C1619.08 88.2518 1590.02 90.9444 1575.3 93.7467C1555.79 97.6975 1552.9 95.6934 1525.41 103.695C1498 112.466 1481.97 119.177 1459.85 131.11C1435.84 140.461 1380.38 196.361 1370.73 223.744C1357.98 248.77 1347.18 279.049 1342.25 297.851C1340.7 303.554 1339.45 308.2 1338.43 311.773C1338 313.235 1337.72 313.837 1337.59 313.81C1337.59 313.81 1337.59 313.81 1337.59 313.81C1337.44 313.766 1337.53 312.747 1337.99 310.812C1340.22 301.339 1343.16 287.41 1347.87 270.88C1357.57 240.663 1358.74 236.973 1380.98 200.176C1405.35 164.88 1424.21 144.635 1469.01 120.659C1515.01 100.011 1525.98 91.9373 1597.2 84.3368C1620.7 82.6184 1637.04 82.3844 1651.59 82.1183C1680.67 82.1487 1700.02 80.2806 1747.46 88.4984C1819.65 98.3322 1897.61 154.244 1920.12 191.84C1941.82 220.589 1960.83 264.4 1969.66 312.956L1970.69 318.032L1965.56 317.996C1955.61 317.966 1945.5 317.919 1935.31 317.849C1874.8 317.436 1800.1 318.479 1733.31 317.742C1666.52 317.005 1572.09 316.075 1528.46 315.451C1484.84 314.828 1474.2 314.687 1432.22 315.068C1408.08 315.287 1374.83 315.081 1346.74 314.275C1332.61 313.87 1335.81 313.306 1350.04 313.036C1370.84 312.641 1387.92 312.905 1398.64 312.199C1420.06 310.79 1429.16 310.249 1456.2 311.069C1483.24 311.89 1495.99 310.025 1511.75 310.24C1527.51 310.455 1527.25 311.554 1607.4 310.707C1687.55 309.86 1731.49 309.643 1761.84 309.44C1792.19 309.237 1855.57 310.191 1905.03 309.846C1921.09 309.735 1942.54 309.692 1965.56 309.667L1961.5 314.668C1953.5 267.608 1930.46 217.856 1913.38 197.021C1888.36 166.21 1888.4 165.889 1863.45 145.267Z" fill="#111213"/>
<path d="M1342 449L1969.95 449C1955.97 505.306 1922.61 677.816 1655.97 677.816C1390 677.816 1354.08 506.581 1342.25 450.176L1342 449Z" fill="#111213"/>
<path d="M1444.12 617.549C1470.14 636.757 1494.63 645.603 1532.15 657.132C1569.95 667.259 1575.94 669.989 1621.13 673.326C1633.17 673.965 1644.27 674.27 1655.97 674.322C1688.48 674.564 1717.55 671.871 1732.26 669.069C1751.77 665.118 1754.67 667.122 1782.16 659.121C1809.57 650.35 1825.6 643.638 1847.72 631.706C1871.73 622.355 1927.19 566.455 1936.83 539.072C1949.58 514.046 1960.39 483.766 1965.31 464.965C1966.86 459.262 1968.11 454.616 1969.14 451.043C1969.56 449.581 1969.85 448.979 1969.97 449.006C1969.97 449.006 1969.97 449.006 1969.97 449.006C1970.13 449.05 1970.03 450.069 1969.58 452.003C1967.35 461.477 1964.41 475.406 1959.7 491.936C1950 522.153 1948.82 525.843 1926.59 562.64C1902.21 597.936 1883.35 618.181 1838.55 642.156C1792.55 662.805 1781.58 670.879 1710.37 678.479C1686.87 680.197 1670.52 680.431 1655.97 680.698C1626.9 680.667 1607.55 682.535 1560.1 674.318C1487.92 664.484 1409.96 608.572 1387.45 570.975C1365.74 542.226 1346.74 498.416 1337.91 449.86L1336.88 444.784L1342 444.819C1351.96 444.85 1362.07 444.897 1372.26 444.967C1432.77 445.38 1507.47 444.337 1574.26 445.074C1641.05 445.811 1735.48 446.741 1779.11 447.365C1822.73 447.988 1833.36 448.129 1875.35 447.748C1899.49 447.529 1932.74 447.735 1960.82 448.541C1974.96 448.946 1971.75 449.51 1957.53 449.78C1936.72 450.175 1919.65 449.911 1908.93 450.617C1887.51 452.026 1878.4 452.567 1851.36 451.747C1824.32 450.926 1811.58 452.791 1795.82 452.576C1780.06 452.361 1780.32 451.262 1700.17 452.109C1620.02 452.956 1576.08 453.172 1545.73 453.376C1515.38 453.579 1452 452.625 1402.53 452.969C1386.47 453.081 1365.03 453.123 1342 453.149L1346.06 448.148C1354.07 495.208 1377.11 544.959 1394.19 565.795C1419.2 596.606 1419.17 596.927 1444.12 617.549Z" fill="#111213"/>
<path d="M1720.86 280.406C1734.96 280.746 1742.48 280.242 1750.48 280.929L1750.44 280.925C1751.44 281.005 1752.45 281.11 1753.47 281.248C1762.16 283.507 1763.29 279.956 1803.7 295.303C1804.94 295.859 1806.21 296.45 1807.5 297.082C1829.96 308.012 1843.52 322.822 1851.78 335.467C1859.34 347.142 1863.03 357.176 1865.59 365.426C1868.81 375.604 1871.67 392.969 1871.39 411.375C1871.3 424.289 1869.89 437.771 1867.24 449.629C1864.98 459.997 1860.33 474.173 1851.89 487.352C1839.91 506.924 1819.19 521.696 1804.2 528.526C1800.99 530.066 1798.06 531.33 1795.52 532.367C1772.81 540.715 1772.17 539.065 1753.04 541.229C1737.03 542.399 1723.76 544.279 1706.07 542.801L1706.14 542.808C1702.61 542.539 1698.91 542.106 1695.01 541.435C1674.87 537.481 1669.81 534.845 1652.82 527.404C1650.17 526.149 1647.24 524.694 1643.99 522.908C1626.52 513.572 1612.79 498.447 1605.5 486.551C1602.64 482.028 1600.51 478.037 1598.91 475.08C1594.16 465.561 1594.19 463.017 1591.41 451.496C1598.27 445.929 1599.94 445.492 1606.54 440.498C1613.41 435.303 1616.77 430.848 1622.51 426.698C1628.26 422.547 1628.67 422.944 1635.32 417.339C1641.97 411.734 1659.02 398.398 1667.24 391.672C1670.9 388.678 1675.11 385.401 1679.1 382.322L1681.9 380.05L1677.91 379.317C1670.92 377.896 1664.46 376.549 1660.42 375.817C1653.13 374.498 1642.59 372.555 1623.35 369.198C1604.11 365.84 1604.2 365.405 1600.43 364.589C1598.51 364.175 1596.76 364.015 1594.66 363.75C1597.89 353.101 1602.03 342.94 1606.8 336.358C1607.92 334.506 1608.97 332.879 1609.88 331.496C1618.91 317.259 1635.16 306.326 1645.17 301.28C1648.28 299.626 1650.82 298.5 1652.78 297.698C1653.56 297.38 1653.98 297.299 1654.07 297.373C1654.07 297.372 1654.08 297.372 1654.08 297.372C1654.18 297.324 1654.28 297.277 1654.38 297.23C1653.05 297.502 1655.36 296.169 1660.44 293.869C1671.61 289.015 1681.44 286.972 1687.45 285.115C1699.53 281.601 1704.96 280.32 1720.86 280.406Z" fill="#111213"/>
<path d="M374.092 830C304.261 830 241.082 822.351 184.552 807.052C128.023 790.734 83.1316 766.256 49.8789 733.619C16.6263 699.963 0 657.637 0 606.642C0 572.985 9.14448 542.388 27.4334 514.851C47.385 486.294 78.975 461.306 122.203 439.888C165.432 418.47 223.624 400.622 296.78 386.343C371.598 371.045 463.874 359.316 573.608 351.157C643.438 346.057 699.136 340.958 740.702 335.858C782.268 329.739 812.195 320.56 830.484 308.321C850.436 296.082 860.412 276.704 860.412 250.187C860.412 206.331 835.472 169.104 785.593 138.507C735.714 106.891 657.571 91.0821 551.162 91.0821C501.283 91.0821 448.079 96.1816 391.55 106.381C336.683 116.58 288.467 134.938 246.901 161.455C205.335 187.973 179.564 226.219 169.588 276.194L34.9153 244.067C43.2284 210.41 60.686 179.813 87.2881 152.276C113.89 123.719 148.805 98.7314 192.034 77.3135C236.925 55.8955 290.129 39.5771 351.646 28.3582C413.164 16.1194 481.332 10 556.15 10C654.245 10 735.714 20.199 800.557 40.5971C867.062 60.9951 916.941 92.612 950.194 135.448C985.109 177.264 1002.57 231.318 1002.57 297.612V498.022C1002.57 527.599 1003.4 561.256 1005.06 598.993C1008.39 636.729 1011.71 674.465 1015.04 712.201C1020.02 748.918 1025.01 782.065 1030 811.642H892.833C887.845 774.925 884.52 740.249 882.857 707.612C881.195 674.975 879.532 642.338 877.869 609.701H852.93C827.99 647.438 794.738 683.134 753.172 716.791C713.269 750.448 661.727 777.985 598.547 799.403C537.03 819.801 462.211 830 374.092 830ZM384.068 748.918C423.971 748.918 463.874 745.348 503.777 738.209C545.343 730.05 586.909 716.791 628.475 698.433C671.703 680.075 712.438 656.107 750.678 626.53C790.581 595.933 827.99 558.706 862.906 514.851V346.567L935.23 354.216C911.953 372.575 876.207 386.343 827.99 395.522C781.437 404.701 728.232 411.841 668.378 416.94C608.523 422.04 547.837 428.159 486.32 435.299C424.802 441.418 367.442 450.597 314.237 462.836C262.696 475.075 221.13 492.923 189.54 516.381C157.95 538.818 142.155 569.925 142.155 609.701C142.155 656.617 164.6 691.803 209.492 715.261C254.383 737.699 312.575 748.918 384.068 748.918Z" fill="#111213"/>
<path d="M2529.45 2.5C2591.41 2.50003 2645.94 10.9233 2693 27.8291C2741.68 43.6702 2782.88 67.4486 2816.54 99.1924C2850.24 129.924 2875.49 168.583 2892.31 215.106L2893.09 217.242C2909.38 262.206 2917.5 313.753 2917.5 371.842V832.5H2772.3V382.862C2772.3 318.023 2762.32 264.356 2742.49 221.751C2722.68 179.188 2693.01 147.596 2653.46 126.871L2653.42 126.849L2653.38 126.824C2615.47 105.059 2567.53 94.0938 2509.42 94.0938C2443.05 94.0938 2382.54 108.694 2327.86 137.867L2327.86 137.868C2274.79 167.07 2230 207.224 2193.5 258.361C2157.03 309.434 2131.31 367.813 2116.35 433.529V832.5H1973.65V403.33C1973.65 334.277 1963.67 276.913 1943.81 231.138L1943.8 231.103L1943.79 231.066C1925.62 185.365 1896.77 151.185 1857.23 128.396L1857.21 128.385L1857.19 128.373C1819.31 105.582 1770.55 94.0938 1710.77 94.0938C1637.7 94.0938 1573.88 109.757 1519.23 140.997C1466.19 172.277 1422.25 214.497 1387.41 267.693C1354.24 320.891 1331 379.305 1317.7 442.951V832.5H1172.5V21.3936H1323.04L1322.69 24.1982L1290.49 285.896H1320.93C1342.66 223.419 1371.82 171.203 1408.46 129.309C1445.45 87.0139 1490.85 55.2964 1544.62 34.1621C1598.37 13.0355 1659.61 2.50001 1728.29 2.5C1813.67 2.5 1883.38 16.7069 1937.26 45.2998C1992.63 72.7446 2032.27 108.2 2055.93 151.751C2080.68 193.267 2091.73 235.901 2088.99 279.6H2121.94C2137.09 222.357 2162.12 173.306 2197.05 132.501L2198.72 130.524C2233.81 89.1667 2278.67 57.5781 2333.24 35.7422L2333.26 35.7324C2390.35 13.5578 2455.76 2.5 2529.45 2.5Z" fill="#111213" stroke="#111213" stroke-width="5"/>
<path d="M1321 285C1214 296.5 972.3 360.1 861.5 522.5C810 630 877.564 609.883 896.5 584C981 468.5 1148.32 359.998 1291 321.5L1321 285Z" fill="#111213"/>
</svg>
