<svg width="2920" height="835" viewBox="0 0 2920 835" fill="none" xmlns="http://www.w3.org/2000/svg">
<defs>
  <clipPath id="rightEyeShapeClip" clipPathUnits="userSpaceOnUse">
    <path d="M2279.81 115.583C2351.47 82.1513 2435.43 77.7508 2499.78 84.9663C2540.23 88.9107 2582.02 98.4853 2620.31 116.346C2661.87 135.739 2699.31 164.907 2726.35 207.249C2753.39 249.591 2770 305.053 2770 376.98C2770 448.906 2753.39 504.369 2726.35 546.711C2699.31 589.053 2661.87 618.22 2620.31 637.613C2548.65 671.044 2464.68 675.444 2400.33 668.228C2359.89 664.284 2318.09 654.71 2279.81 636.849C2238.24 617.456 2200.81 588.289 2173.76 545.948C2146.72 503.606 2130.11 448.142 2130.11 376.216C2130.11 304.29 2146.72 248.827 2173.76 206.485C2200.81 164.143 2238.24 134.975 2279.81 115.583Z"></path>
  </clipPath>
  <clipPath id="leftEyeShapeClip" clipPathUnits="userSpaceOnUse">
    <path d="M1479.87 115.583C1551.55 82.1404 1635.55 77.7477 1699.91 84.9735C1740.33 88.9219 1782.1 98.4964 1820.37 116.348C1861.93 135.74 1899.37 164.908 1926.41 207.25C1953.45 249.592 1970.06 305.055 1970.06 376.981C1970.06 448.908 1953.45 504.371 1926.41 546.713C1899.37 589.054 1861.93 618.221 1820.37 637.614C1748.68 671.057 1664.68 675.449 1600.32 668.223C1559.9 664.274 1518.13 654.701 1479.87 636.85C1438.3 617.457 1400.86 588.29 1373.82 545.948C1346.78 503.606 1330.17 448.143 1330.17 376.217C1330.17 304.29 1346.78 248.827 1373.82 206.485C1400.86 164.144 1438.3 134.976 1479.87 115.583Z"></path>
  </clipPath>
  <clipPath id="rightLidClip" clipPathUnits="userSpaceOnUse">
    <rect id="rightLidReveal" x="2130" y="672" width="640" height="0"></rect>
  </clipPath>
  <clipPath id="leftLidClip" clipPathUnits="userSpaceOnUse">
    <rect id="leftLidReveal" x="1330" y="672" width="640" height="0"></rect>
  </clipPath>
</defs>

<path d="M2279.81 115.583C2351.47 82.1513 2435.43 77.7508 2499.78 84.9663C2540.23 88.9107 2582.02 98.4853 2620.31 116.346C2661.87 135.739 2699.31 164.907 2726.35 207.249C2753.39 249.591 2770 305.053 2770 376.98C2770 448.906 2753.39 504.369 2726.35 546.711C2699.31 589.053 2661.87 618.22 2620.31 637.613C2548.65 671.044 2464.68 675.444 2400.33 668.228C2359.89 664.284 2318.09 654.71 2279.81 636.849C2238.24 617.456 2200.81 588.289 2173.76 545.948C2146.72 503.606 2130.11 448.142 2130.11 376.216C2130.11 304.29 2146.72 248.827 2173.76 206.485C2200.81 164.143 2238.24 134.975 2279.81 115.583Z" fill="#EDEDEB"/>
<path d="M2279.81 115.583L2273.47 101.989L2273.47 101.989L2279.81 115.583ZM2499.78 84.9663L2498.11 99.8729C2498.18 99.8809 2498.26 99.8885 2498.33 99.8955L2499.78 84.9663ZM2620.31 116.346L2626.65 102.753L2626.65 102.753L2620.31 116.346ZM2726.35 207.249L2738.99 199.175V199.175L2726.35 207.249ZM2770 376.98H2785V376.98H2770ZM2726.35 546.711L2738.99 554.785H2738.99L2726.35 546.711ZM2620.31 637.613L2626.65 651.206H2626.65L2620.31 637.613ZM2400.33 668.228L2402 653.321C2401.93 653.313 2401.86 653.306 2401.79 653.299L2400.33 668.228ZM2279.81 636.849L2273.47 650.442L2273.47 650.443L2279.81 636.849ZM2173.76 545.948L2161.12 554.021L2161.12 554.021L2173.76 545.948ZM2130.11 376.216H2115.11V376.216H2130.11ZM2173.76 206.485L2161.12 198.411L2161.12 198.411L2173.76 206.485ZM2279.81 115.583L2286.15 129.176C2354.49 97.2944 2435.43 92.8449 2498.11 99.8729L2499.78 84.9663L2501.46 70.0597C2435.43 62.6567 2348.44 67.0083 2273.47 101.989L2279.81 115.583ZM2499.78 84.9663L2498.33 99.8955C2537.5 103.716 2577.56 112.957 2613.96 129.94L2620.31 116.346L2626.65 102.753C2586.48 84.0135 2542.95 74.1055 2501.24 70.0371L2499.78 84.9663ZM2620.31 116.346L2613.96 129.94C2653.39 148.335 2688.45 175.764 2713.71 215.322L2726.35 207.249L2738.99 199.175C2710.17 154.05 2670.35 123.142 2626.65 102.753L2620.31 116.346ZM2726.35 207.249L2713.71 215.322C2738.97 254.87 2755 307.423 2755 376.98H2770H2785C2785 302.684 2767.82 244.311 2738.99 199.175L2726.35 207.249ZM2770 376.98L2755 376.98C2755 446.537 2738.97 499.09 2713.71 538.638L2726.35 546.711L2738.99 554.785C2767.82 509.649 2785 451.276 2785 376.98H2770ZM2726.35 546.711L2713.71 538.638C2688.45 578.196 2653.39 605.623 2613.96 624.019L2620.31 637.613L2626.65 651.206C2670.35 630.817 2710.17 599.91 2738.99 554.785L2726.35 546.711ZM2620.31 637.613L2613.96 624.019C2545.63 655.901 2464.68 660.35 2402 653.321L2400.33 668.228L2398.66 683.135C2464.68 690.538 2551.67 686.187 2626.65 651.206L2620.31 637.613ZM2400.33 668.228L2401.79 653.299C2362.62 649.478 2322.55 640.238 2286.15 623.256L2279.81 636.849L2273.47 650.443C2313.63 669.182 2357.16 679.089 2398.87 683.157L2400.33 668.228ZM2279.81 636.849L2286.15 623.256C2246.72 604.86 2211.67 577.432 2186.41 537.874L2173.76 545.948L2161.12 554.021C2189.94 599.146 2229.76 630.053 2273.47 650.442L2279.81 636.849ZM2173.76 545.948L2186.41 537.874C2161.15 498.327 2145.11 445.773 2145.11 376.216L2130.11 376.216H2115.11C2115.11 450.512 2132.3 508.885 2161.12 554.021L2173.76 545.948ZM2130.11 376.216H2145.11C2145.11 306.66 2161.15 254.106 2186.41 214.558L2173.76 206.485L2161.12 198.411C2132.3 243.548 2115.11 301.92 2115.11 376.216H2130.11ZM2173.76 206.485L2186.41 214.558C2211.67 175 2246.72 147.572 2286.15 129.176L2279.81 115.583L2273.47 101.989C2229.76 122.379 2189.94 153.286 2161.12 198.411L2173.76 206.485Z" fill="#111213"/>
<path d="M2765.51 310.816L2137.56 310.817C2151.54 254.511 2184.89 82.0011 2451.53 82.001C2717.5 82.0008 2753.43 253.236 2765.26 309.64L2765.51 310.816Z" fill="#111213"/>
<path d="M2663.39 142.268C2637.37 123.059 2612.88 114.214 2575.36 102.685C2537.56 92.5577 2531.57 89.828 2486.38 86.4909C2474.34 85.8524 2463.24 85.5467 2451.53 85.4948C2419.02 85.2527 2389.96 87.9454 2375.25 90.7477C2355.73 94.6984 2352.84 92.6944 2325.35 100.696C2297.94 109.467 2281.91 116.178 2259.79 128.111C2235.78 137.462 2180.32 193.361 2170.67 220.745C2157.93 245.771 2147.12 276.05 2142.19 294.852C2140.65 300.555 2139.4 305.201 2138.37 308.774C2137.94 310.236 2137.66 310.838 2137.54 310.811C2137.54 310.811 2137.54 310.811 2137.54 310.811C2137.38 310.767 2137.48 309.748 2137.93 307.813C2140.16 298.34 2143.1 284.411 2147.81 267.881C2157.51 237.664 2158.69 233.974 2180.92 197.177C2205.29 161.881 2224.15 141.636 2268.96 117.66C2314.95 97.0123 2325.93 88.9382 2397.14 81.3378C2420.64 79.6194 2436.98 79.3854 2451.53 79.1193C2480.61 79.1497 2499.96 77.2815 2547.4 85.4994C2619.59 95.3332 2697.55 151.245 2720.06 188.841C2741.76 217.59 2760.77 261.401 2769.6 309.957L2770.63 315.033L2765.51 314.997C2755.55 314.967 2745.44 314.92 2735.25 314.85C2674.74 314.437 2600.04 315.48 2533.25 314.743C2466.46 314.006 2372.03 313.076 2328.4 312.452C2284.78 311.829 2274.15 311.688 2232.16 312.069C2208.02 312.288 2174.77 312.082 2146.68 311.276C2132.55 310.871 2135.75 310.307 2149.98 310.037C2170.78 309.642 2187.86 309.906 2198.58 309.2C2220 307.791 2229.1 307.25 2256.15 308.07C2283.19 308.891 2295.93 307.026 2311.69 307.241C2327.45 307.456 2327.19 308.555 2407.34 307.708C2487.49 306.861 2531.43 306.644 2561.78 306.441C2592.13 306.238 2655.51 307.192 2704.97 306.847C2721.03 306.736 2742.48 306.693 2765.51 306.668L2761.45 311.669C2753.44 264.609 2730.4 214.857 2713.32 194.022C2688.31 163.211 2688.34 162.89 2663.39 142.268Z" fill="#111213"/>
<path id="rightPupil" class="pupil" d="M2519.26 258.161C2535.37 258.55 2543.99 257.979 2553.14 258.754L2553.08 258.748C2554.26 258.84 2555.44 258.962 2556.65 259.124C2566.6 261.714 2567.9 257.643 2614.23 275.237C2615.65 275.874 2617.1 276.552 2618.59 277.276C2644.34 289.808 2659.88 306.787 2669.35 321.283C2678.02 334.667 2682.24 346.17 2685.18 355.629C2688.87 367.297 2692.15 387.204 2691.83 408.306C2691.73 423.112 2690.11 438.568 2687.07 452.162C2684.48 464.048 2679.16 480.299 2669.47 495.408C2655.75 517.847 2631.99 534.781 2614.81 542.611C2611.13 544.377 2607.76 545.826 2604.85 547.015C2578.82 556.585 2578.08 554.692 2556.14 557.174C2537.81 558.515 2522.6 560.667 2502.34 558.979L2502.41 558.986C2498.36 558.678 2494.11 558.183 2489.63 557.411C2466.53 552.879 2460.73 549.857 2441.26 541.326C2438.21 539.887 2434.86 538.22 2431.13 536.172C2411.1 525.469 2395.36 508.128 2387.01 494.49C2383.72 489.305 2381.29 484.73 2379.46 481.34C2374 470.427 2374.04 467.51 2370.85 454.3C2378.72 447.918 2380.63 447.415 2388.2 441.689C2396.07 435.735 2399.92 430.627 2406.51 425.869C2413.09 421.111 2413.57 421.566 2421.19 415.141C2428.81 408.714 2448.36 393.425 2457.78 385.715C2461.98 382.282 2466.81 378.526 2471.38 374.996L2474.59 372.392L2470.01 371.55C2462.01 369.921 2454.59 368.378 2449.96 367.539C2441.61 366.026 2429.53 363.8 2407.47 359.951C2385.41 356.102 2385.52 355.601 2381.19 354.666C2378.99 354.191 2376.99 354.007 2374.58 353.704C2378.28 341.497 2383.02 329.85 2388.49 322.305C2389.79 320.181 2390.99 318.316 2392.03 316.73C2402.37 300.409 2421.01 287.875 2432.48 282.09C2436.05 280.194 2438.96 278.903 2441.21 277.983C2442.11 277.62 2442.59 277.526 2442.69 277.61C2442.69 277.609 2442.69 277.609 2442.7 277.608C2442.81 277.554 2442.93 277.501 2443.04 277.447C2441.52 277.756 2444.17 276.228 2449.99 273.593C2462.8 268.028 2474.07 265.686 2480.96 263.558C2494.81 259.529 2501.03 258.063 2519.26 258.161Z" fill="#111213"/>
<path d="M1479.87 115.583C1551.55 82.1404 1635.55 77.7477 1699.91 84.9735C1740.33 88.9219 1782.1 98.4964 1820.37 116.348C1861.93 135.74 1899.37 164.908 1926.41 207.25C1953.45 249.592 1970.06 305.055 1970.06 376.981C1970.06 448.908 1953.45 504.371 1926.41 546.713C1899.37 589.054 1861.93 618.221 1820.37 637.614C1748.68 671.057 1664.68 675.449 1600.32 668.223C1559.9 664.274 1518.13 654.701 1479.87 636.85C1438.3 617.457 1400.86 588.29 1373.82 545.948C1346.78 503.606 1330.17 448.143 1330.17 376.217C1330.17 304.29 1346.78 248.827 1373.82 206.485C1400.86 164.144 1438.3 134.976 1479.87 115.583Z" fill="#EDEDEB"/>
<path d="M1479.87 115.583L1473.53 101.99L1473.53 101.99L1479.87 115.583ZM1699.91 84.9735L1698.23 99.8799C1698.31 99.8879 1698.38 99.8955 1698.45 99.9025L1699.91 84.9735ZM1820.37 116.348L1826.71 102.754L1826.71 102.754L1820.37 116.348ZM1926.41 207.25L1939.05 199.176V199.176L1926.41 207.25ZM1970.06 376.981L1985.06 376.981V376.981H1970.06ZM1926.41 546.713L1939.05 554.786L1939.05 554.786L1926.41 546.713ZM1820.37 637.614L1826.71 651.208H1826.71L1820.37 637.614ZM1600.32 668.223L1602 653.316C1601.93 653.308 1601.85 653.301 1601.78 653.294L1600.32 668.223ZM1479.87 636.85L1473.53 650.443V650.443L1479.87 636.85ZM1373.82 545.948L1361.18 554.022H1361.18L1373.82 545.948ZM1330.17 376.217H1315.17V376.217H1330.17ZM1373.82 206.485L1361.18 198.412L1361.18 198.412L1373.82 206.485ZM1479.87 115.583L1486.21 129.176C1554.57 97.2839 1635.55 92.8418 1698.23 99.8799L1699.91 84.9735L1701.58 70.0672C1635.55 62.6536 1548.53 66.9969 1473.53 101.99L1479.87 115.583ZM1699.91 84.9735L1698.45 99.9025C1737.6 103.727 1777.64 112.968 1814.02 129.941L1820.37 116.348L1826.71 102.754C1786.56 84.025 1743.06 74.1171 1701.37 70.0446L1699.91 84.9735ZM1820.37 116.348L1814.02 129.941C1853.45 148.337 1888.5 175.766 1913.77 215.323L1926.41 207.25L1939.05 199.176C1910.23 154.051 1870.41 123.144 1826.71 102.754L1820.37 116.348ZM1926.41 207.25L1913.77 215.323C1939.02 254.871 1955.06 307.425 1955.06 376.981H1970.06H1985.06C1985.06 302.685 1967.88 244.313 1939.05 199.176L1926.41 207.25ZM1970.06 376.981L1955.06 376.981C1955.06 446.538 1939.02 499.092 1913.77 538.639L1926.41 546.713L1939.05 554.786C1967.88 509.65 1985.06 451.277 1985.06 376.981L1970.06 376.981ZM1926.41 546.713L1913.77 538.639C1888.5 578.197 1853.45 605.625 1814.02 624.021L1820.37 637.614L1826.71 651.208C1870.41 630.818 1910.23 599.911 1939.05 554.786L1926.41 546.713ZM1820.37 637.614L1814.02 624.021C1745.66 655.913 1664.68 660.354 1602 653.316L1600.32 668.223L1598.65 683.129C1664.68 690.543 1751.7 686.2 1826.71 651.208L1820.37 637.614ZM1600.32 668.223L1601.78 653.294C1562.63 649.469 1522.59 640.229 1486.21 623.256L1479.87 636.85L1473.53 650.443C1513.67 669.172 1557.17 679.079 1598.86 683.151L1600.32 668.223ZM1479.87 636.85L1486.21 623.256C1446.78 604.86 1411.73 577.432 1386.47 537.875L1373.82 545.948L1361.18 554.022C1390 599.147 1429.82 630.053 1473.53 650.443L1479.87 636.85ZM1373.82 545.948L1386.47 537.875C1361.21 498.327 1345.17 445.773 1345.17 376.217H1330.17H1315.17C1315.17 450.513 1332.36 508.885 1361.18 554.022L1373.82 545.948ZM1330.17 376.217H1345.17C1345.17 306.66 1361.21 254.107 1386.47 214.559L1373.82 206.485L1361.18 198.412C1332.36 243.548 1315.17 301.92 1315.17 376.217H1330.17ZM1373.82 206.485L1386.47 214.559C1411.73 175.001 1446.78 147.572 1486.21 129.176L1479.87 115.583L1473.53 101.99C1429.82 122.379 1390 153.287 1361.18 198.412L1373.82 206.485Z" fill="#111213"/>
<path d="M1965.56 310.817L1337.62 310.818C1351.6 254.512 1384.95 82.0021 1651.59 82.002C1917.56 82.0018 1953.49 253.237 1965.32 309.641L1965.56 310.817Z" fill="#111213"/>
<path d="M1863.45 142.269C1837.43 123.06 1812.94 114.215 1775.42 102.686C1737.62 92.5586 1731.62 89.829 1686.44 86.4919C1674.4 85.8533 1663.3 85.5477 1651.59 85.4958C1619.08 85.2537 1590.02 87.9464 1575.3 90.7486C1555.79 94.6994 1552.9 92.6954 1525.41 100.697C1498 109.467 1481.97 116.179 1459.85 128.112C1435.84 137.463 1380.38 193.362 1370.73 220.745C1357.98 245.772 1347.18 276.051 1342.25 294.853C1340.7 300.556 1339.45 305.202 1338.43 308.775C1338 310.237 1337.72 310.839 1337.59 310.812C1337.59 310.812 1337.59 310.812 1337.59 310.812C1337.44 310.768 1337.53 309.749 1337.99 307.814C1340.22 298.341 1343.16 284.412 1347.87 267.882C1357.57 237.665 1358.74 233.975 1380.98 197.178C1405.35 161.882 1424.21 141.637 1469.01 117.661C1515.01 97.0133 1525.98 88.9392 1597.2 81.3387C1620.7 79.6204 1637.04 79.3864 1651.59 79.1202C1680.67 79.1506 1700.02 77.2825 1747.46 85.5003C1819.65 95.3342 1897.61 151.246 1920.12 188.842C1941.82 217.591 1960.83 261.402 1969.66 309.958L1970.69 315.034L1965.56 314.998C1955.61 314.968 1945.5 314.921 1935.31 314.851C1874.8 314.438 1800.1 315.481 1733.31 314.744C1666.52 314.007 1572.09 313.077 1528.46 312.453C1484.84 311.83 1474.2 311.689 1432.22 312.07C1408.08 312.289 1374.83 312.083 1346.74 311.277C1332.61 310.872 1335.81 310.308 1350.04 310.038C1370.84 309.643 1387.92 309.907 1398.64 309.201C1420.06 307.792 1429.16 307.251 1456.2 308.071C1483.24 308.892 1495.99 307.027 1511.75 307.242C1527.51 307.457 1527.25 308.556 1607.4 307.709C1687.55 306.862 1731.49 306.645 1761.84 306.442C1792.19 306.239 1855.57 307.193 1905.03 306.848C1921.09 306.737 1942.54 306.694 1965.56 306.669L1961.5 311.67C1953.5 264.61 1930.46 214.858 1913.38 194.023C1888.36 163.212 1888.4 162.891 1863.45 142.269Z" fill="#111213"/>
<path id="leftPupil" class="pupil" d="M1719.32 258.159C1735.43 258.548 1744.05 257.976 1753.19 258.751L1753.14 258.746C1754.32 258.838 1755.5 258.96 1756.71 259.122C1766.66 261.712 1767.96 257.641 1814.29 275.235C1815.71 275.872 1817.16 276.549 1818.65 277.274C1844.39 289.805 1859.94 306.784 1869.4 321.281C1878.08 334.665 1882.3 346.168 1885.24 355.626C1888.93 367.294 1892.21 387.202 1891.88 408.303C1891.79 423.109 1890.17 438.565 1887.13 452.16C1884.54 464.045 1879.22 480.297 1869.53 495.406C1855.8 517.844 1832.04 534.778 1814.87 542.609C1811.18 544.375 1807.82 545.824 1804.91 547.012C1778.87 556.583 1778.14 554.69 1756.2 557.171C1737.87 558.512 1722.66 560.665 1702.4 558.976L1702.47 558.984C1698.41 558.676 1694.16 558.18 1689.69 557.409C1666.59 552.876 1660.79 549.854 1641.32 541.324C1638.27 539.885 1634.92 538.217 1631.19 536.169C1611.16 525.466 1595.42 508.126 1587.07 494.488C1583.78 489.303 1581.35 484.727 1579.51 481.337C1574.06 470.425 1574.1 467.508 1570.91 454.299C1578.78 447.918 1580.69 447.416 1588.26 441.69C1596.13 435.735 1599.98 430.628 1606.57 425.87C1613.15 421.112 1613.63 421.567 1621.25 415.141C1628.87 408.715 1648.41 393.426 1657.84 385.715C1662.04 382.283 1666.86 378.526 1671.44 374.997L1674.65 372.392L1670.07 371.55C1662.07 369.922 1654.65 368.379 1650.02 367.54C1641.67 366.027 1629.59 363.801 1607.53 359.952C1585.47 356.102 1585.57 355.602 1581.25 354.667C1579.05 354.191 1577.05 354.008 1574.64 353.705C1578.34 341.497 1583.08 329.849 1588.55 322.302C1589.84 320.179 1591.05 318.314 1592.09 316.728C1602.43 300.407 1621.07 287.873 1632.54 282.087C1636.11 280.192 1639.02 278.9 1641.27 277.981C1642.17 277.616 1642.65 277.523 1642.75 277.609C1642.75 277.608 1642.75 277.608 1642.75 277.607C1642.87 277.552 1642.99 277.498 1643.11 277.444C1641.58 277.756 1644.22 276.228 1650.05 273.59C1662.86 268.026 1674.13 265.684 1681.01 263.555C1694.87 259.527 1701.09 258.06 1719.32 258.159Z" fill="#111213"/>
<path d="M374.092 830C304.262 830 241.082 822.351 184.552 807.052C128.023 790.734 83.1316 766.256 49.8789 733.619C16.6263 699.963 0 657.637 0 606.642C0 572.985 9.14448 542.388 27.4334 514.851C47.385 486.294 78.975 461.306 122.203 439.888C165.432 418.47 223.624 400.622 296.78 386.343C371.598 371.045 463.874 359.316 573.608 351.157C643.438 346.057 699.136 340.958 740.702 335.858C782.268 329.739 812.195 320.56 830.484 308.321C850.436 296.082 860.412 276.704 860.412 250.187C860.412 206.331 835.472 169.104 785.593 138.507C735.714 106.891 657.571 91.0821 551.162 91.0821C501.283 91.0821 448.079 96.1816 391.55 106.381C336.683 116.58 288.467 134.938 246.901 161.455C205.335 187.973 179.564 226.219 169.588 276.194L34.9153 244.067C43.2284 210.41 60.686 179.813 87.2881 152.276C113.89 123.719 148.806 98.7314 192.034 77.3135C236.925 55.8955 290.129 39.5771 351.646 28.3582C413.164 16.1194 481.332 10 556.15 10C654.245 10 735.714 20.199 800.557 40.5971C867.062 60.9951 916.941 92.612 950.194 135.448C985.109 177.264 1002.57 231.318 1002.57 297.612V498.022C1002.57 527.599 1003.4 561.256 1005.06 598.992C1008.39 636.729 1011.71 674.465 1015.04 712.201C1020.02 748.918 1025.01 782.065 1030 811.642H892.833C887.845 774.925 884.52 740.249 882.857 707.612C881.195 674.975 879.532 642.338 877.869 609.701H852.93C827.99 647.438 794.738 683.134 753.172 716.791C713.269 750.448 661.727 777.985 598.547 799.403C537.03 819.801 462.211 830 374.092 830ZM384.068 748.918C423.971 748.918 463.874 745.348 503.777 738.209C545.343 730.05 586.909 716.791 628.475 698.433C671.703 680.075 712.438 656.107 750.678 626.53C790.581 595.933 827.99 558.706 862.906 514.851V346.567L935.23 354.216C911.953 372.575 876.207 386.343 827.99 395.522C781.437 404.702 728.232 411.841 668.378 416.94C608.523 422.04 547.837 428.159 486.32 435.298C424.802 441.418 367.442 450.597 314.237 462.836C262.696 475.075 221.13 492.923 189.54 516.381C157.95 538.818 142.155 569.925 142.155 609.701C142.155 656.617 164.6 691.803 209.492 715.261C254.383 737.699 312.575 748.918 384.068 748.918Z" fill="#111213"/>
<path d="M2529.45 2.5C2591.41 2.50003 2645.94 10.9233 2693 27.8291C2741.68 43.6702 2782.88 67.4486 2816.54 99.1924C2850.24 129.924 2875.49 168.583 2892.31 215.106L2893.09 217.242C2909.38 262.206 2917.5 313.753 2917.5 371.842V832.5H2772.3V382.862C2772.3 318.023 2762.32 264.356 2742.49 221.751C2722.68 179.188 2693.01 147.596 2653.46 126.871L2653.42 126.849L2653.38 126.824C2615.47 105.059 2567.53 94.0938 2509.42 94.0938C2443.05 94.0938 2382.54 108.694 2327.86 137.867L2327.86 137.868C2274.79 167.07 2230 207.224 2193.5 258.361C2157.03 309.434 2131.31 367.813 2116.35 433.529V832.5H1973.65V403.33C1973.65 334.277 1963.67 276.913 1943.81 231.138L1943.8 231.103L1943.79 231.066C1925.62 185.365 1896.77 151.185 1857.23 128.396L1857.21 128.385L1857.19 128.373C1819.31 105.582 1770.55 94.0938 1710.77 94.0938C1637.7 94.0938 1573.88 109.757 1519.23 140.997C1466.19 172.277 1422.25 214.497 1387.41 267.693C1354.24 320.891 1331 379.305 1317.7 442.951V832.5H1172.5V21.3936H1323.04L1322.69 24.1982L1290.49 285.896H1320.93C1342.66 223.419 1371.82 171.203 1408.46 129.309C1445.45 87.0139 1490.85 55.2964 1544.62 34.1621C1598.37 13.0355 1659.61 2.50001 1728.29 2.5C1813.67 2.5 1883.38 16.7069 1937.26 45.2998C1992.63 72.7446 2032.27 108.2 2055.93 151.751C2080.68 193.267 2091.73 235.901 2088.99 279.6H2121.94C2137.09 222.357 2162.12 173.306 2197.05 132.501L2198.72 130.524C2233.81 89.1667 2278.67 57.5781 2333.24 35.7422L2333.26 35.7324C2390.35 13.5578 2455.76 2.5 2529.45 2.5Z" fill="#111213" stroke="#111213" stroke-width="5"/>
<path d="M1321 285C1214 296.5 972.3 360.1 861.5 522.5C810 630 877.564 609.883 896.5 584C981 468.5 1148.32 359.998 1291 321.5L1321 285Z" fill="#111213"/>
  <g class="eye-mask" clip-path="url(#rightEyeShapeClip)">
  <g id="rightBottomLid" class="bottom-lid" clip-path="url(#rightLidClip)">
    <path d="M2142 444L2769.95 444C2755.97 500.306 2722.61 672.816 2455.97 672.816C2190 672.816 2154.08 501.581 2142.25 445.176L2142 444Z" fill="#111213"/>
    <path d="M2244.12 612.549C2270.14 631.757 2294.63 640.603 2332.15 652.132C2369.95 662.259 2375.94 664.989 2421.13 668.326C2433.17 668.965 2444.27 669.27 2455.97 669.322C2488.48 669.564 2517.55 666.871 2532.26 664.069C2551.77 660.118 2554.67 662.122 2582.16 654.121C2609.57 645.35 2625.6 638.638 2647.72 626.706C2671.73 617.355 2727.19 561.455 2736.83 534.072C2749.58 509.046 2760.39 478.766 2765.31 459.965C2766.86 454.262 2768.11 449.616 2769.14 446.043C2769.56 444.581 2769.85 443.979 2769.97 444.006C2769.97 444.006 2769.97 444.006 2769.97 444.006C2770.13 444.05 2770.03 445.069 2769.58 447.003C2767.35 456.477 2764.41 470.406 2759.7 486.936C2750 517.153 2748.82 520.843 2726.59 557.64C2702.21 592.936 2683.35 613.181 2638.55 637.156C2592.55 657.805 2581.58 665.879 2510.37 673.479C2486.87 675.197 2470.52 675.431 2455.97 675.698C2426.9 675.667 2407.55 677.535 2360.1 669.318C2287.92 659.484 2209.96 603.572 2187.45 565.975C2165.74 537.226 2146.74 493.416 2137.91 444.86L2136.88 439.784L2142 439.819C2151.96 439.85 2162.07 439.897 2172.26 439.967C2232.77 440.38 2307.47 439.337 2374.26 440.074C2441.05 440.811 2535.48 441.741 2579.11 442.365C2622.73 442.988 2633.36 443.129 2675.35 442.748C2699.49 442.529 2732.74 442.735 2760.82 443.541C2774.96 443.946 2771.75 444.51 2757.53 444.78C2736.72 445.175 2719.65 444.911 2708.93 445.617C2687.51 447.026 2678.4 447.567 2651.36 446.747C2624.32 445.926 2611.58 447.791 2595.82 447.576C2580.06 447.361 2580.32 446.262 2500.17 447.109C2420.02 447.956 2376.08 448.172 2345.73 448.376C2315.38 448.579 2252 447.625 2202.53 447.969C2186.47 448.081 2165.03 448.123 2142 448.149L2146.06 443.148C2154.07 490.208 2177.11 539.959 2194.19 560.795C2219.2 591.606 2219.17 591.927 2244.12 612.549Z" fill="#111213"/>
  </g>
  </g>
  <g class="eye-mask" clip-path="url(#leftEyeShapeClip)">
  <g id="leftBottomLid" class="bottom-lid" clip-path="url(#leftLidClip)">
    <path d="M1342 449L1969.95 449C1955.97 505.306 1922.61 677.816 1655.97 677.816C1390 677.816 1354.08 506.581 1342.25 450.176L1342 449Z" fill="#111213"/>
    <path d="M1444.12 617.549C1470.14 636.757 1494.63 645.603 1532.15 657.132C1569.95 667.259 1575.94 669.989 1621.13 673.326C1633.17 673.965 1644.27 674.27 1655.97 674.322C1688.48 674.564 1717.55 671.871 1732.26 669.069C1751.77 665.118 1754.67 667.122 1782.16 659.121C1809.57 650.35 1825.6 643.638 1847.72 631.706C1871.73 622.355 1927.19 566.455 1936.83 539.072C1949.58 514.046 1960.39 483.766 1965.31 464.965C1966.86 459.262 1968.11 454.616 1969.14 451.043C1969.56 449.581 1969.85 448.979 1969.97 449.006C1969.97 449.006 1969.97 449.006 1969.97 449.006C1970.13 449.05 1970.03 450.069 1969.58 452.003C1967.35 461.477 1964.41 475.406 1959.7 491.936C1950 522.153 1948.82 525.843 1926.59 562.64C1902.21 597.936 1883.35 618.181 1838.55 642.156C1792.55 662.805 1781.58 670.879 1710.37 678.479C1686.87 680.197 1670.52 680.431 1655.97 680.698C1626.9 680.667 1607.55 682.535 1560.1 674.318C1487.92 664.484 1409.96 608.572 1387.45 570.975C1365.74 542.226 1346.74 498.416 1337.91 449.86L1336.88 444.784L1342 444.819C1351.96 444.85 1362.07 444.897 1372.26 444.967C1432.77 445.38 1507.47 444.337 1574.26 445.074C1641.05 445.811 1735.48 446.741 1779.11 447.365C1822.73 447.988 1833.36 448.129 1875.35 447.748C1899.49 447.529 1932.74 447.735 1960.82 448.541C1974.96 448.946 1971.75 449.51 1957.53 449.78C1936.72 450.175 1919.65 449.911 1908.93 450.617C1887.51 452.026 1878.4 452.567 1851.36 451.747C1824.32 450.926 1811.58 452.791 1795.82 452.576C1780.06 452.361 1780.32 451.262 1700.17 452.109C1620.02 452.956 1576.08 453.172 1545.73 453.376C1515.38 453.579 1452 452.625 1402.53 452.969C1386.47 453.081 1365.03 453.123 1342 453.149L1346.06 448.148C1354.07 495.208 1377.11 544.959 1394.19 565.795C1419.2 596.606 1419.17 596.927 1444.12 617.549Z" fill="#111213"/>
  </g>
  </g>

</svg>
